# xmcd CD database file
#
# Track frame offsets:
#	150
#	20096
#	42125
#	61731
#	79094
#	105627
#	129125
#	154820
#	172379
#	189785
#	220626
#	269907
#	292504
#	310387
#	319652
#
# Disc length: 4774 seconds
#
# Revision: 0
# Processed by: cddbd v1.5.2PL0 Copyright (c) Steve Scherf et al.
# Submitted via: CDex 1.70beta2
#
DISCID=ca12a40f
DTITLE=Kenny Clarke - Telefunken Blues
DYEAR=1954
DGENRE=Jazz
TTITLE0=Strollin
TTITLE1=Sonor
TTITLE2=Blue´s Mood
TTITLE3=Skoot
TTITLE4=Telefunken Blues
TTITLE5=Klook´s Nook
TTITLE6=Baggin´ The Blues
TTITLE7=Inhibitions
TTITLE8=Pru´s Blues
TTITLE9=I Dig You The Most
TTITLE10=Cute Tomato
TTITLE11=Summer Evening
TTITLE12=Oz-The Wizard
TTITLE13=Now´s The Time
TTITLE14=Plenty For Kenny
EXTD=YEAR: 1954
EXTT0=
EXTT1=
EXTT2=
EXTT3=
EXTT4=
EXTT5=
EXTT6=
EXTT7=
EXTT8=
EXTT9=
EXTT10=
EXTT11=
EXTT12=
EXTT13=
EXTT14=
PLAYORDER=
